<mxfile host="app.diagrams.net" modified="2022-11-14T01:20:34.672Z" agent="5.0 (Windows NT 10.0; Win64; x64) AppleWebKit/537.36 (KHTML, like Gecko) Chrome/107.0.0.0 Safari/537.36" etag="JMLDpIYoTq3Ird8t0vMA" version="20.5.3" type="github">
  <diagram id="ONEzwFfRCkW8u3uYUryu" name="第 1 页">
    <mxGraphModel dx="1422" dy="804" grid="1" gridSize="10" guides="1" tooltips="1" connect="1" arrows="1" fold="1" page="1" pageScale="1" pageWidth="827" pageHeight="1169" math="0" shadow="0">
      <root>
        <mxCell id="0" />
        <mxCell id="1" parent="0" />
        <mxCell id="mAAbD1bWU5NnxZL-0QFJ-1" value="" style="rounded=1;whiteSpace=wrap;html=1;" vertex="1" parent="1">
          <mxGeometry x="400" y="150" width="120" height="60" as="geometry" />
        </mxCell>
        <mxCell id="mAAbD1bWU5NnxZL-0QFJ-2" value="" style="rounded=0;whiteSpace=wrap;html=1;" vertex="1" parent="1">
          <mxGeometry x="400" y="260" width="120" height="60" as="geometry" />
        </mxCell>
        <mxCell id="mAAbD1bWU5NnxZL-0QFJ-3" value="Assets" style="childLayout=tableLayout;recursiveResize=0;strokeColor=#98bf21;fillColor=#A7C942;shadow=1;" vertex="1" parent="1">
          <mxGeometry x="190" y="530" width="280" height="160" as="geometry" />
        </mxCell>
        <mxCell id="mAAbD1bWU5NnxZL-0QFJ-4" style="shape=tableRow;horizontal=0;startSize=0;swimlaneHead=0;swimlaneBody=0;top=0;left=0;bottom=0;right=0;dropTarget=0;collapsible=0;recursiveResize=0;expand=0;fontStyle=0;strokeColor=inherit;fillColor=#ffffff;" vertex="1" parent="mAAbD1bWU5NnxZL-0QFJ-3">
          <mxGeometry width="280" height="33" as="geometry" />
        </mxCell>
        <mxCell id="mAAbD1bWU5NnxZL-0QFJ-5" value="Title 1" style="connectable=0;recursiveResize=0;strokeColor=inherit;fillColor=#A7C942;align=center;fontStyle=1;fontColor=#FFFFFF;html=1;" vertex="1" parent="mAAbD1bWU5NnxZL-0QFJ-4">
          <mxGeometry width="93" height="33" as="geometry">
            <mxRectangle width="93" height="33" as="alternateBounds" />
          </mxGeometry>
        </mxCell>
        <mxCell id="mAAbD1bWU5NnxZL-0QFJ-6" value="Title 2" style="connectable=0;recursiveResize=0;strokeColor=inherit;fillColor=#A7C942;align=center;fontStyle=1;fontColor=#FFFFFF;html=1;" vertex="1" parent="mAAbD1bWU5NnxZL-0QFJ-4">
          <mxGeometry x="93" width="94" height="33" as="geometry">
            <mxRectangle width="94" height="33" as="alternateBounds" />
          </mxGeometry>
        </mxCell>
        <mxCell id="mAAbD1bWU5NnxZL-0QFJ-7" value="Title 3" style="connectable=0;recursiveResize=0;strokeColor=inherit;fillColor=#A7C942;align=center;fontStyle=1;fontColor=#FFFFFF;html=1;" vertex="1" parent="mAAbD1bWU5NnxZL-0QFJ-4">
          <mxGeometry x="187" width="93" height="33" as="geometry">
            <mxRectangle width="93" height="33" as="alternateBounds" />
          </mxGeometry>
        </mxCell>
        <mxCell id="mAAbD1bWU5NnxZL-0QFJ-8" value="" style="shape=tableRow;horizontal=0;startSize=0;swimlaneHead=0;swimlaneBody=0;top=0;left=0;bottom=0;right=0;dropTarget=0;collapsible=0;recursiveResize=0;expand=0;fontStyle=0;strokeColor=inherit;fillColor=#ffffff;" vertex="1" parent="mAAbD1bWU5NnxZL-0QFJ-3">
          <mxGeometry y="33" width="280" height="32" as="geometry" />
        </mxCell>
        <mxCell id="mAAbD1bWU5NnxZL-0QFJ-9" value="Value 1" style="connectable=0;recursiveResize=0;strokeColor=inherit;fillColor=inherit;align=center;whiteSpace=wrap;html=1;" vertex="1" parent="mAAbD1bWU5NnxZL-0QFJ-8">
          <mxGeometry width="93" height="32" as="geometry">
            <mxRectangle width="93" height="32" as="alternateBounds" />
          </mxGeometry>
        </mxCell>
        <mxCell id="mAAbD1bWU5NnxZL-0QFJ-10" value="Value 2" style="connectable=0;recursiveResize=0;strokeColor=inherit;fillColor=inherit;align=center;whiteSpace=wrap;html=1;" vertex="1" parent="mAAbD1bWU5NnxZL-0QFJ-8">
          <mxGeometry x="93" width="94" height="32" as="geometry">
            <mxRectangle width="94" height="32" as="alternateBounds" />
          </mxGeometry>
        </mxCell>
        <mxCell id="mAAbD1bWU5NnxZL-0QFJ-11" value="Value 3" style="connectable=0;recursiveResize=0;strokeColor=inherit;fillColor=inherit;align=center;whiteSpace=wrap;html=1;" vertex="1" parent="mAAbD1bWU5NnxZL-0QFJ-8">
          <mxGeometry x="187" width="93" height="32" as="geometry">
            <mxRectangle width="93" height="32" as="alternateBounds" />
          </mxGeometry>
        </mxCell>
        <mxCell id="mAAbD1bWU5NnxZL-0QFJ-12" value="" style="shape=tableRow;horizontal=0;startSize=0;swimlaneHead=0;swimlaneBody=0;top=0;left=0;bottom=0;right=0;dropTarget=0;collapsible=0;recursiveResize=0;expand=0;fontStyle=1;strokeColor=inherit;fillColor=#EAF2D3;" vertex="1" parent="mAAbD1bWU5NnxZL-0QFJ-3">
          <mxGeometry y="65" width="280" height="31" as="geometry" />
        </mxCell>
        <mxCell id="mAAbD1bWU5NnxZL-0QFJ-13" value="Value 4" style="connectable=0;recursiveResize=0;strokeColor=inherit;fillColor=inherit;whiteSpace=wrap;html=1;" vertex="1" parent="mAAbD1bWU5NnxZL-0QFJ-12">
          <mxGeometry width="93" height="31" as="geometry">
            <mxRectangle width="93" height="31" as="alternateBounds" />
          </mxGeometry>
        </mxCell>
        <mxCell id="mAAbD1bWU5NnxZL-0QFJ-14" value="Value 5" style="connectable=0;recursiveResize=0;strokeColor=inherit;fillColor=inherit;whiteSpace=wrap;html=1;" vertex="1" parent="mAAbD1bWU5NnxZL-0QFJ-12">
          <mxGeometry x="93" width="94" height="31" as="geometry">
            <mxRectangle width="94" height="31" as="alternateBounds" />
          </mxGeometry>
        </mxCell>
        <mxCell id="mAAbD1bWU5NnxZL-0QFJ-15" value="Value 6" style="connectable=0;recursiveResize=0;strokeColor=inherit;fillColor=inherit;whiteSpace=wrap;html=1;" vertex="1" parent="mAAbD1bWU5NnxZL-0QFJ-12">
          <mxGeometry x="187" width="93" height="31" as="geometry">
            <mxRectangle width="93" height="31" as="alternateBounds" />
          </mxGeometry>
        </mxCell>
        <mxCell id="mAAbD1bWU5NnxZL-0QFJ-16" value="" style="shape=tableRow;horizontal=0;startSize=0;swimlaneHead=0;swimlaneBody=0;top=0;left=0;bottom=0;right=0;dropTarget=0;collapsible=0;recursiveResize=0;expand=0;fontStyle=0;strokeColor=inherit;fillColor=#ffffff;" vertex="1" parent="mAAbD1bWU5NnxZL-0QFJ-3">
          <mxGeometry y="96" width="280" height="33" as="geometry" />
        </mxCell>
        <mxCell id="mAAbD1bWU5NnxZL-0QFJ-17" value="Value 7" style="connectable=0;recursiveResize=0;strokeColor=inherit;fillColor=inherit;fontStyle=0;align=center;whiteSpace=wrap;html=1;" vertex="1" parent="mAAbD1bWU5NnxZL-0QFJ-16">
          <mxGeometry width="93" height="33" as="geometry">
            <mxRectangle width="93" height="33" as="alternateBounds" />
          </mxGeometry>
        </mxCell>
        <mxCell id="mAAbD1bWU5NnxZL-0QFJ-18" value="Value 8" style="connectable=0;recursiveResize=0;strokeColor=inherit;fillColor=inherit;fontStyle=0;align=center;whiteSpace=wrap;html=1;" vertex="1" parent="mAAbD1bWU5NnxZL-0QFJ-16">
          <mxGeometry x="93" width="94" height="33" as="geometry">
            <mxRectangle width="94" height="33" as="alternateBounds" />
          </mxGeometry>
        </mxCell>
        <mxCell id="mAAbD1bWU5NnxZL-0QFJ-19" value="Value 9" style="connectable=0;recursiveResize=0;strokeColor=inherit;fillColor=inherit;fontStyle=0;align=center;whiteSpace=wrap;html=1;" vertex="1" parent="mAAbD1bWU5NnxZL-0QFJ-16">
          <mxGeometry x="187" width="93" height="33" as="geometry">
            <mxRectangle width="93" height="33" as="alternateBounds" />
          </mxGeometry>
        </mxCell>
        <mxCell id="mAAbD1bWU5NnxZL-0QFJ-20" value="" style="shape=tableRow;horizontal=0;startSize=0;swimlaneHead=0;swimlaneBody=0;top=0;left=0;bottom=0;right=0;dropTarget=0;collapsible=0;recursiveResize=0;expand=0;fontStyle=1;strokeColor=inherit;fillColor=#EAF2D3;" vertex="1" parent="mAAbD1bWU5NnxZL-0QFJ-3">
          <mxGeometry y="129" width="280" height="31" as="geometry" />
        </mxCell>
        <mxCell id="mAAbD1bWU5NnxZL-0QFJ-21" value="Value 10" style="connectable=0;recursiveResize=0;strokeColor=inherit;fillColor=inherit;whiteSpace=wrap;html=1;" vertex="1" parent="mAAbD1bWU5NnxZL-0QFJ-20">
          <mxGeometry width="93" height="31" as="geometry">
            <mxRectangle width="93" height="31" as="alternateBounds" />
          </mxGeometry>
        </mxCell>
        <mxCell id="mAAbD1bWU5NnxZL-0QFJ-22" value="Value 11" style="connectable=0;recursiveResize=0;strokeColor=inherit;fillColor=inherit;whiteSpace=wrap;html=1;" vertex="1" parent="mAAbD1bWU5NnxZL-0QFJ-20">
          <mxGeometry x="93" width="94" height="31" as="geometry">
            <mxRectangle width="94" height="31" as="alternateBounds" />
          </mxGeometry>
        </mxCell>
        <mxCell id="mAAbD1bWU5NnxZL-0QFJ-23" value="Value 12" style="connectable=0;recursiveResize=0;strokeColor=inherit;fillColor=inherit;whiteSpace=wrap;html=1;" vertex="1" parent="mAAbD1bWU5NnxZL-0QFJ-20">
          <mxGeometry x="187" width="93" height="31" as="geometry">
            <mxRectangle width="93" height="31" as="alternateBounds" />
          </mxGeometry>
        </mxCell>
        <mxCell id="mAAbD1bWU5NnxZL-0QFJ-24" value="" style="childLayout=tableLayout;recursiveResize=0;shadow=0;fillColor=none;" vertex="1" parent="1">
          <mxGeometry x="520" y="550" width="180" height="140" as="geometry" />
        </mxCell>
        <mxCell id="mAAbD1bWU5NnxZL-0QFJ-25" value="" style="shape=tableRow;horizontal=0;startSize=0;swimlaneHead=0;swimlaneBody=0;top=0;left=0;bottom=0;right=0;dropTarget=0;collapsible=0;recursiveResize=0;expand=0;fontStyle=0;fillColor=none;strokeColor=inherit;" vertex="1" parent="mAAbD1bWU5NnxZL-0QFJ-24">
          <mxGeometry width="180" height="47" as="geometry" />
        </mxCell>
        <mxCell id="mAAbD1bWU5NnxZL-0QFJ-26" value="Value 1" style="connectable=0;recursiveResize=0;strokeColor=inherit;fillColor=none;align=center;whiteSpace=wrap;html=1;" vertex="1" parent="mAAbD1bWU5NnxZL-0QFJ-25">
          <mxGeometry width="60" height="47" as="geometry">
            <mxRectangle width="60" height="47" as="alternateBounds" />
          </mxGeometry>
        </mxCell>
        <mxCell id="mAAbD1bWU5NnxZL-0QFJ-27" value="Value 2" style="connectable=0;recursiveResize=0;strokeColor=inherit;fillColor=none;align=center;whiteSpace=wrap;html=1;" vertex="1" parent="mAAbD1bWU5NnxZL-0QFJ-25">
          <mxGeometry x="60" width="60" height="47" as="geometry">
            <mxRectangle width="60" height="47" as="alternateBounds" />
          </mxGeometry>
        </mxCell>
        <mxCell id="mAAbD1bWU5NnxZL-0QFJ-28" value="Value 3" style="connectable=0;recursiveResize=0;strokeColor=inherit;fillColor=none;align=center;whiteSpace=wrap;html=1;" vertex="1" parent="mAAbD1bWU5NnxZL-0QFJ-25">
          <mxGeometry x="120" width="60" height="47" as="geometry">
            <mxRectangle width="60" height="47" as="alternateBounds" />
          </mxGeometry>
        </mxCell>
        <mxCell id="mAAbD1bWU5NnxZL-0QFJ-29" style="shape=tableRow;horizontal=0;startSize=0;swimlaneHead=0;swimlaneBody=0;top=0;left=0;bottom=0;right=0;dropTarget=0;collapsible=0;recursiveResize=0;expand=0;fontStyle=0;fillColor=none;strokeColor=inherit;" vertex="1" parent="mAAbD1bWU5NnxZL-0QFJ-24">
          <mxGeometry y="47" width="180" height="46" as="geometry" />
        </mxCell>
        <mxCell id="mAAbD1bWU5NnxZL-0QFJ-30" value="Value 4" style="connectable=0;recursiveResize=0;strokeColor=inherit;fillColor=none;align=center;whiteSpace=wrap;html=1;" vertex="1" parent="mAAbD1bWU5NnxZL-0QFJ-29">
          <mxGeometry width="60" height="46" as="geometry">
            <mxRectangle width="60" height="46" as="alternateBounds" />
          </mxGeometry>
        </mxCell>
        <mxCell id="mAAbD1bWU5NnxZL-0QFJ-31" value="Value 5" style="connectable=0;recursiveResize=0;strokeColor=inherit;fillColor=none;align=center;whiteSpace=wrap;html=1;" vertex="1" parent="mAAbD1bWU5NnxZL-0QFJ-29">
          <mxGeometry x="60" width="60" height="46" as="geometry">
            <mxRectangle width="60" height="46" as="alternateBounds" />
          </mxGeometry>
        </mxCell>
        <mxCell id="mAAbD1bWU5NnxZL-0QFJ-32" value="Value 6" style="connectable=0;recursiveResize=0;strokeColor=inherit;fillColor=none;align=center;whiteSpace=wrap;html=1;" vertex="1" parent="mAAbD1bWU5NnxZL-0QFJ-29">
          <mxGeometry x="120" width="60" height="46" as="geometry">
            <mxRectangle width="60" height="46" as="alternateBounds" />
          </mxGeometry>
        </mxCell>
        <mxCell id="mAAbD1bWU5NnxZL-0QFJ-33" style="shape=tableRow;horizontal=0;startSize=0;swimlaneHead=0;swimlaneBody=0;top=0;left=0;bottom=0;right=0;dropTarget=0;collapsible=0;recursiveResize=0;expand=0;fontStyle=0;fillColor=none;strokeColor=inherit;" vertex="1" parent="mAAbD1bWU5NnxZL-0QFJ-24">
          <mxGeometry y="93" width="180" height="47" as="geometry" />
        </mxCell>
        <mxCell id="mAAbD1bWU5NnxZL-0QFJ-34" value="Value 7" style="connectable=0;recursiveResize=0;strokeColor=inherit;fillColor=none;align=center;whiteSpace=wrap;html=1;" vertex="1" parent="mAAbD1bWU5NnxZL-0QFJ-33">
          <mxGeometry width="60" height="47" as="geometry">
            <mxRectangle width="60" height="47" as="alternateBounds" />
          </mxGeometry>
        </mxCell>
        <mxCell id="mAAbD1bWU5NnxZL-0QFJ-35" value="Value 8" style="connectable=0;recursiveResize=0;strokeColor=inherit;fillColor=none;align=center;whiteSpace=wrap;html=1;" vertex="1" parent="mAAbD1bWU5NnxZL-0QFJ-33">
          <mxGeometry x="60" width="60" height="47" as="geometry">
            <mxRectangle width="60" height="47" as="alternateBounds" />
          </mxGeometry>
        </mxCell>
        <mxCell id="mAAbD1bWU5NnxZL-0QFJ-36" value="Value 9" style="connectable=0;recursiveResize=0;strokeColor=inherit;fillColor=none;align=center;whiteSpace=wrap;html=1;" vertex="1" parent="mAAbD1bWU5NnxZL-0QFJ-33">
          <mxGeometry x="120" width="60" height="47" as="geometry">
            <mxRectangle width="60" height="47" as="alternateBounds" />
          </mxGeometry>
        </mxCell>
        <mxCell id="mAAbD1bWU5NnxZL-0QFJ-37" value="" style="shape=image;html=1;verticalLabelPosition=bottom;verticalAlign=top;imageAspect=1;aspect=fixed;image=img/clipart/Gear_128x128.png" vertex="1" parent="1">
          <mxGeometry x="211" y="760" width="52" height="61" as="geometry" />
        </mxCell>
        <mxCell id="mAAbD1bWU5NnxZL-0QFJ-38" value="Label" style="html=1;whiteSpace=wrap;container=1;recursiveResize=0;collapsible=0;" vertex="1" parent="1">
          <mxGeometry x="377" y="770" width="160" height="70" as="geometry" />
        </mxCell>
        <mxCell id="mAAbD1bWU5NnxZL-0QFJ-39" value="" style="triangle;html=1;whiteSpace=wrap;" vertex="1" parent="mAAbD1bWU5NnxZL-0QFJ-38">
          <mxGeometry x="20" y="20" width="20" height="30" as="geometry" />
        </mxCell>
        <mxCell id="mAAbD1bWU5NnxZL-0QFJ-40" value="Vertical Tree Layout" style="swimlane;startSize=20;horizontal=1;childLayout=treeLayout;horizontalTree=0;resizable=0;containerType=tree;" vertex="1" parent="1">
          <mxGeometry x="240" y="1120" width="280" height="190" as="geometry" />
        </mxCell>
        <mxCell id="mAAbD1bWU5NnxZL-0QFJ-41" value="Root" style="whiteSpace=wrap;html=1;" vertex="1" parent="mAAbD1bWU5NnxZL-0QFJ-40">
          <mxGeometry x="90" y="40" width="100" height="40" as="geometry" />
        </mxCell>
        <mxCell id="mAAbD1bWU5NnxZL-0QFJ-42" value="Child 1" style="whiteSpace=wrap;html=1;" vertex="1" parent="mAAbD1bWU5NnxZL-0QFJ-40">
          <mxGeometry x="20" y="130" width="100" height="40" as="geometry" />
        </mxCell>
        <mxCell id="mAAbD1bWU5NnxZL-0QFJ-43" value="" style="edgeStyle=elbowEdgeStyle;elbow=vertical;html=1;rounded=0;" edge="1" parent="mAAbD1bWU5NnxZL-0QFJ-40" source="mAAbD1bWU5NnxZL-0QFJ-41" target="mAAbD1bWU5NnxZL-0QFJ-42">
          <mxGeometry relative="1" as="geometry" />
        </mxCell>
        <mxCell id="mAAbD1bWU5NnxZL-0QFJ-44" value="Child 2" style="whiteSpace=wrap;html=1;" vertex="1" parent="mAAbD1bWU5NnxZL-0QFJ-40">
          <mxGeometry x="160" y="130" width="100" height="40" as="geometry" />
        </mxCell>
        <mxCell id="mAAbD1bWU5NnxZL-0QFJ-45" value="" style="edgeStyle=elbowEdgeStyle;elbow=vertical;html=1;rounded=0;" edge="1" parent="mAAbD1bWU5NnxZL-0QFJ-40" source="mAAbD1bWU5NnxZL-0QFJ-41" target="mAAbD1bWU5NnxZL-0QFJ-44">
          <mxGeometry relative="1" as="geometry" />
        </mxCell>
        <mxCell id="mAAbD1bWU5NnxZL-0QFJ-46" value="Vertical Flow Layout" style="swimlane;startSize=20;horizontal=1;childLayout=flowLayout;flowOrientation=north;resizable=0;interRankCellSpacing=50;containerType=tree;" vertex="1" parent="1">
          <mxGeometry x="620" y="1120" width="270" height="280" as="geometry" />
        </mxCell>
        <mxCell id="mAAbD1bWU5NnxZL-0QFJ-47" value="Start" style="whiteSpace=wrap;html=1;" vertex="1" parent="mAAbD1bWU5NnxZL-0QFJ-46">
          <mxGeometry x="85" y="40" width="100" height="40" as="geometry" />
        </mxCell>
        <mxCell id="mAAbD1bWU5NnxZL-0QFJ-48" value="Task" style="whiteSpace=wrap;html=1;" vertex="1" parent="mAAbD1bWU5NnxZL-0QFJ-46">
          <mxGeometry x="20" y="130" width="100" height="40" as="geometry" />
        </mxCell>
        <mxCell id="mAAbD1bWU5NnxZL-0QFJ-49" value="" style="html=1;curved=1;rounded=0;noEdgeStyle=1;orthogonal=1;" edge="1" parent="mAAbD1bWU5NnxZL-0QFJ-46" source="mAAbD1bWU5NnxZL-0QFJ-47" target="mAAbD1bWU5NnxZL-0QFJ-48">
          <mxGeometry relative="1" as="geometry">
            <Array as="points">
              <mxPoint x="112.5" y="92" />
              <mxPoint x="70" y="118" />
            </Array>
          </mxGeometry>
        </mxCell>
        <mxCell id="mAAbD1bWU5NnxZL-0QFJ-50" value="Task" style="whiteSpace=wrap;html=1;" vertex="1" parent="mAAbD1bWU5NnxZL-0QFJ-46">
          <mxGeometry x="150" y="130" width="100" height="40" as="geometry" />
        </mxCell>
        <mxCell id="mAAbD1bWU5NnxZL-0QFJ-51" value="" style="html=1;curved=1;rounded=0;noEdgeStyle=1;orthogonal=1;" edge="1" parent="mAAbD1bWU5NnxZL-0QFJ-46" source="mAAbD1bWU5NnxZL-0QFJ-47" target="mAAbD1bWU5NnxZL-0QFJ-50">
          <mxGeometry relative="1" as="geometry">
            <Array as="points">
              <mxPoint x="157.5" y="92" />
              <mxPoint x="200" y="118" />
            </Array>
          </mxGeometry>
        </mxCell>
        <mxCell id="mAAbD1bWU5NnxZL-0QFJ-52" value="End" style="whiteSpace=wrap;html=1;" vertex="1" parent="mAAbD1bWU5NnxZL-0QFJ-46">
          <mxGeometry x="85" y="220" width="100" height="40" as="geometry" />
        </mxCell>
        <mxCell id="mAAbD1bWU5NnxZL-0QFJ-53" value="" style="html=1;curved=1;rounded=0;noEdgeStyle=1;orthogonal=1;" edge="1" parent="mAAbD1bWU5NnxZL-0QFJ-46" source="mAAbD1bWU5NnxZL-0QFJ-48" target="mAAbD1bWU5NnxZL-0QFJ-52">
          <mxGeometry relative="1" as="geometry">
            <Array as="points">
              <mxPoint x="70" y="182" />
              <mxPoint x="112.5" y="208" />
            </Array>
          </mxGeometry>
        </mxCell>
        <mxCell id="mAAbD1bWU5NnxZL-0QFJ-54" value="" style="html=1;curved=1;rounded=0;noEdgeStyle=1;orthogonal=1;" edge="1" parent="mAAbD1bWU5NnxZL-0QFJ-46" source="mAAbD1bWU5NnxZL-0QFJ-50" target="mAAbD1bWU5NnxZL-0QFJ-52">
          <mxGeometry relative="1" as="geometry">
            <Array as="points">
              <mxPoint x="200" y="182" />
              <mxPoint x="157.5" y="208" />
            </Array>
          </mxGeometry>
        </mxCell>
        <mxCell id="mAAbD1bWU5NnxZL-0QFJ-55" value="" style="shape=sumEllipse;perimeter=ellipsePerimeter;whiteSpace=wrap;html=1;backgroundOutline=1;" vertex="1" parent="1">
          <mxGeometry x="730" y="800" width="80" height="80" as="geometry" />
        </mxCell>
      </root>
    </mxGraphModel>
  </diagram>
</mxfile>
